<?xml version="1.0" standalone="no"?>
<!DOCTYPE svg PUBLIC "-//W3C//DTD SVG 20010904//EN"
 "http://www.w3.org/TR/2001/REC-SVG-20010904/DTD/svg10.dtd">
<svg version="1.0" xmlns="http://www.w3.org/2000/svg"
 width="512.000000pt" height="512.000000pt" viewBox="0 0 512.000000 512.000000"
 preserveAspectRatio="xMidYMid meet">
<metadata>
Created by potrace 1.14, written by Peter Selinger 2001-2017
</metadata>
<g transform="translate(0.000000,512.000000) scale(0.100000,-0.100000)"
fill="#000000" stroke="none">
<path d="M513 4654 c-67 -34 -63 50 -63 -1331 0 -1195 1 -1249 19 -1276 27
-42 56 -58 105 -60 52 -1 87 19 109 65 14 29 16 85 17 430 0 395 1 399 26 495
14 53 28 106 30 117 33 184 117 404 171 445 29 24 32 24 53 11 19 -12 21 -106
4 -204 -7 -39 -14 -84 -17 -101 -10 -59 -36 -171 -51 -220 -29 -92 -15 -128
43 -118 36 5 60 31 73 77 7 23 17 50 24 61 7 11 22 55 34 97 34 126 116 338
130 338 5 0 24 -22 43 -49 l36 -49 -29 -144 c-15 -78 -38 -181 -50 -228 -12
-47 -23 -89 -24 -95 -1 -5 -10 -36 -20 -68 -16 -54 -16 -61 -1 -83 26 -40 87
-24 109 28 47 112 58 145 87 253 36 136 37 143 38 169 1 15 6 17 29 11 15 -4
38 -8 52 -9 14 -2 27 -6 28 -9 3 -7 -3 -58 -14 -112 -3 -11 -7 -60 -10 -110
-11 -161 22 -218 124 -219 64 -1 124 27 174 81 41 44 98 135 98 158 0 11 9 34
20 50 35 53 22 105 -26 105 -39 0 -53 -11 -89 -71 -56 -91 -116 -127 -129 -76
-10 43 2 190 25 277 l9 36 97 -4 c88 -3 103 -1 142 20 46 25 67 56 122 183 30
69 36 186 14 245 -9 25 -18 52 -18 61 -2 18 251 345 259 336 3 -3 6 -66 6
-141 0 -135 0 -137 -26 -161 -17 -16 -26 -35 -26 -55 0 -17 -9 -39 -20 -50
-43 -43 -14 -106 44 -96 l31 6 -30 -11 c-43 -16 -63 -36 -76 -78 -6 -20 -18
-47 -25 -61 -28 -52 -194 -695 -186 -723 6 -25 46 -39 76 -27 27 10 56 46 56
70 0 8 7 29 16 45 13 24 47 147 69 245 2 8 13 51 24 95 46 171 70 249 71 230
0 -11 2 -329 3 -707 l2 -686 23 -31 c25 -34 27 -57 11 -133 -17 -82 -38 -140
-57 -154 -26 -20 -32 -17 -22 12 14 36 12 90 -3 102 -7 6 -25 15 -39 21 -22 8
-30 6 -51 -13 -13 -12 -28 -30 -34 -41 -10 -17 -12 -17 -34 -1 -32 22 -36 21
-53 -13 -9 -17 -55 -55 -113 -93 -184 -122 -328 -190 -432 -204 -44 -6 -56 -3
-86 17 -19 13 -38 33 -42 44 -29 90 13 306 90 460 81 162 180 268 307 328 75
36 93 41 160 41 41 0 83 -3 93 -8 27 -13 21 11 -10 40 -66 61 -211 45 -337
-39 -196 -130 -359 -436 -370 -693 -5 -106 12 -149 75 -191 54 -35 157 -41
230 -13 49 18 193 109 324 205 98 71 94 70 86 32 -12 -50 9 -108 46 -129 42
-25 75 -16 126 37 23 23 55 51 71 61 28 18 29 18 23 -1 -3 -11 -7 -33 -7 -50
-5 -82 3 -96 60 -104 3 -1 7 -16 8 -34 4 -57 52 -219 92 -314 180 -421 561
-724 1015 -808 134 -24 350 -25 480 0 208 39 407 123 565 238 85 63 210 177
210 194 0 8 -122 136 -271 285 -269 269 -270 270 -292 251 -48 -41 -90 -79
-101 -89 -26 -25 -112 -68 -179 -89 -88 -28 -250 -32 -325 -8 -59 19 -112 42
-112 49 0 14 211 368 222 372 4 2 8 10 8 17 0 14 45 104 58 117 4 4 6 -10 4
-31 -3 -31 0 -42 19 -54 20 -14 25 -14 51 -1 16 8 37 23 47 32 10 9 30 28 45
42 l27 24 -4 -36 c-8 -68 50 -127 108 -112 14 3 39 22 58 43 18 20 52 49 76
65 l44 28 -8 -28 c-17 -61 -13 -79 21 -82 28 -3 37 4 82 60 27 35 62 74 77 88
27 25 28 25 16 2 -26 -49 -91 -262 -91 -295 0 -58 53 -85 95 -49 36 31 122
136 160 197 48 74 51 78 101 131 23 24 39 44 37 44 -25 0 -168 -137 -262 -250
-84 -101 -84 -101 -76 -60 12 62 37 133 77 219 50 107 54 127 27 141 -45 25
-58 20 -124 -42 -60 -55 -64 -58 -54 -29 8 24 8 35 -1 46 -19 22 -25 19 -44
-24 -16 -33 -31 -47 -80 -70 -5 -2 -6 4 -2 14 14 36 17 85 7 104 -6 10 -25 24
-42 30 -29 10 -34 8 -60 -20 -34 -36 -56 -79 -65 -124 -5 -27 -1 -36 20 -52
24 -20 25 -21 7 -37 -9 -9 -22 -16 -28 -16 -27 0 -25 106 3 147 9 15 13 31 8
41 -4 9 -6 22 -5 27 1 6 -3 5 -10 -2 -6 -6 -18 -9 -25 -6 -8 3 -14 -1 -14 -9
0 -16 -54 -69 -125 -122 -47 -36 -50 -37 -53 -17 -2 12 4 41 13 66 20 51 14
85 -10 65 -8 -7 -15 -17 -15 -23 0 -5 -17 -29 -38 -52 -80 -89 -172 -221 -277
-398 -64 -108 -52 -103 -118 -46 -20 18 -17 40 23 159 10 30 28 89 41 130 12
41 33 100 45 130 13 30 42 105 65 165 43 114 48 126 94 235 33 79 32 77 75 83
19 3 46 8 59 11 33 7 178 20 219 19 18 0 30 3 25 7 -20 19 -96 30 -200 27
-102 -3 -113 -1 -113 14 0 26 27 48 53 44 12 -2 45 -6 72 -10 130 -16 232 -68
343 -174 24 -22 45 -41 49 -41 3 0 130 124 281 276 l276 277 -69 65 c-277 260
-591 385 -967 385 -76 0 -138 3 -138 6 0 3 18 74 40 156 77 287 83 318 84 412
1 78 -2 96 -20 120 -73 99 -237 75 -352 -52 -46 -50 -132 -192 -132 -218 0 -6
-11 -34 -24 -61 -30 -62 -18 -106 28 -106 36 0 65 28 98 96 55 113 121 174
188 174 39 0 51 -29 45 -104 -5 -56 -31 -192 -40 -206 -3 -4 -24 -1 -47 7
-130 45 -291 -47 -338 -192 -7 -22 -16 -44 -20 -50 -12 -16 -29 -77 -33 -118
-3 -21 -6 -39 -8 -41 -2 -1 -22 -13 -44 -26 -78 -46 -195 -142 -278 -227 -28
-29 -56 -53 -62 -53 -6 0 -16 -15 -23 -33 -6 -18 -23 -48 -36 -66 l-24 -32 -1
130 -2 130 54 0 c30 0 70 6 90 15 77 32 165 139 197 241 7 22 19 49 26 60 8
11 14 34 14 52 0 27 -5 35 -26 43 -40 16 -75 -7 -109 -72 -52 -98 -92 -128
-142 -105 -41 18 -63 79 -57 157 6 85 68 345 82 346 7 1 30 2 53 3 50 1 102
47 97 84 -1 13 7 36 20 51 47 61 16 99 -73 91 l-57 -6 6 27 c4 15 16 34 28 43
16 14 18 21 10 37 -6 10 -13 31 -16 46 -5 19 -14 28 -37 33 -17 4 -33 4 -36 1
-4 -3 -19 17 -36 45 l-29 51 -13 -26 c-46 -88 -45 -95 -45 264 0 356 -3 380
-49 415 -36 27 -120 28 -151 0 -11 -10 -85 -100 -162 -200 -78 -99 -153 -194
-167 -211 -14 -16 -37 -45 -51 -64 -14 -19 -37 -48 -51 -64 -14 -17 -65 -83
-114 -146 -49 -63 -94 -120 -100 -127 -5 -7 -15 -18 -20 -25 -131 -168 -143
-191 -124 -249 6 -19 18 -39 27 -46 13 -11 13 -17 1 -45 -8 -18 -13 -36 -11
-40 1 -5 -3 -8 -8 -8 -6 0 -10 4 -10 8 0 5 -8 17 -17 28 -68 77 -83 103 -83
151 0 111 -45 173 -125 173 -38 0 -47 4 -67 33 -12 17 -28 39 -35 47 -14 18
-289 379 -456 601 -65 86 -129 166 -142 179 -31 29 -99 36 -142 14z m286 -614
c46 -61 88 -113 93 -116 5 -3 -6 -15 -24 -27 -39 -27 -65 -87 -124 -292 l-43
-150 0 348 c-1 191 3 347 7 347 4 0 45 -50 91 -110z m190 -254 c-13 -11 -52
-27 -56 -22 -3 2 0 21 7 41 l12 36 20 -26 c11 -14 19 -27 17 -29z m920 -177
c19 -54 16 -59 -39 -59 l-51 0 33 45 c18 24 36 44 40 45 3 0 11 -14 17 -31z
m1442 -518 c13 -11 21 -22 18 -26 -4 -3 -32 -13 -64 -22 -55 -16 -58 -16 -71
2 -20 27 -17 40 9 53 35 17 83 14 108 -7z m572 -160 c203 -36 391 -122 551
-250 l40 -32 -166 -165 -166 -166 -52 37 c-92 65 -215 111 -320 121 -61 6
-159 6 -190 -1 -14 -3 -41 -8 -60 -11 -79 -14 -224 -76 -283 -122 -62 -48
-164 -164 -203 -231 -58 -100 -86 -192 -99 -335 -4 -46 -6 -48 -75 -73 -69
-25 -143 -25 -148 -1 -3 15 1 16 20 9 32 -12 71 10 108 61 38 52 40 101 5 124
-46 30 -67 13 -267 -220 -14 -17 -38 -44 -52 -61 l-26 -30 0 26 c0 80 125 436
321 912 11 27 18 55 15 62 -7 20 108 121 212 185 42 25 58 30 80 24 15 -4 59
-8 98 -9 59 -2 75 -6 93 -24 37 -37 102 -10 115 47 4 15 17 48 29 74 19 42 27
49 62 56 51 12 283 7 358 -7z m-1166 -483 c-8 -18 -29 -71 -47 -118 -18 -47
-38 -98 -45 -115 -8 -16 -23 -55 -34 -85 -12 -30 -26 -64 -31 -75 -6 -11 -25
-65 -44 -119 -18 -54 -35 -95 -38 -90 -6 10 18 157 31 194 5 14 19 57 30 95
23 75 81 191 146 291 43 67 55 75 32 22z m881 -156 c-17 -40 -16 -40 -118 -46
l-95 -7 30 21 c28 19 81 38 129 47 11 2 21 5 22 6 2 1 12 3 23 4 18 2 19 -1 9
-25z m-50 -106 c2 -3 -18 -53 -44 -113 -25 -59 -61 -146 -79 -193 -31 -82 -35
-87 -113 -150 -89 -72 -189 -136 -199 -127 -3 4 -7 23 -9 44 -3 21 -6 51 -9
67 -3 24 5 38 56 89 54 53 63 59 94 55 56 -6 49 24 -16 65 -24 16 -27 16 -71
-12 l-46 -29 10 36 c18 65 71 153 132 218 l59 63 115 -5 c64 -2 117 -6 120 -8z
m-722 -352 c-9 -13 -23 -35 -32 -50 -19 -28 -70 -58 -78 -45 -7 11 44 82 79
109 34 27 52 19 31 -14z m1255 -54 c-16 -52 -53 -95 -75 -87 -12 5 -15 13 -10
34 9 39 33 84 57 111 22 23 22 23 31 3 6 -14 5 -35 -3 -61z m-1881 42 c0 -42
-49 -134 -69 -130 -29 6 -25 58 8 111 35 54 61 62 61 19z m-117 -62 c-14 -36
-14 -41 1 -65 9 -14 22 -25 28 -25 6 0 3 -9 -7 -20 -24 -26 -45 -25 -46 3 -1
12 -2 31 -3 42 -2 34 25 105 39 105 2 0 -4 -18 -12 -40z m1255 -97 c-22 -54
-55 -142 -73 -196 l-33 -98 -26 32 c-28 33 -76 121 -76 138 0 6 17 19 38 30
20 10 75 58 122 105 47 47 86 86 86 86 1 0 -17 -44 -38 -97z m-638 5 c35 -28
88 -33 160 -14 36 9 68 16 72 16 3 0 9 -23 13 -52 10 -70 40 -161 79 -232 31
-59 140 -196 155 -196 5 0 11 -23 13 -50 4 -34 11 -55 24 -65 26 -20 81 -19
92 1 8 15 11 15 33 1 40 -26 170 -64 244 -72 199 -22 354 15 515 124 l45 31
163 -163 163 -162 -43 -38 c-114 -101 -369 -219 -528 -243 -172 -27 -326 -25
-475 7 -81 18 -224 68 -296 104 -224 114 -433 328 -544 560 -55 116 -117 350
-88 332 5 -3 24 3 41 13 28 17 62 65 111 158 l15 27 7 -35 c4 -19 17 -42 29
-52z m570 -564 c0 -8 -4 -12 -10 -9 -5 3 -10 13 -10 21 0 8 5 12 10 9 6 -3 10
-13 10 -21z"/>
<path d="M3990 3407 c0 -1 5 -18 10 -37 16 -52 13 -151 -5 -179 -5 -9 104 -6
112 3 4 4 69 -9 106 -20 15 -5 18 -2 13 14 -16 51 -19 86 -13 177 2 25 -2 30
-22 31 -13 1 -39 -2 -57 -6 -22 -5 -51 -3 -81 6 -45 14 -63 17 -63 11z"/>
<path d="M1239 2683 c-33 -54 -56 -77 -110 -113 -38 -24 -67 -46 -65 -47 2 -2
32 -23 67 -46 46 -31 76 -61 107 -107 23 -36 46 -66 51 -68 5 -2 26 25 46 58
33 55 86 103 169 155 14 8 4 19 -55 59 -54 37 -81 64 -111 112 -22 35 -44 64
-48 64 -5 0 -28 -30 -51 -67z"/>
<path d="M3824 1930 c4 -36 16 -53 16 -22 0 11 3 27 6 36 4 11 1 16 -10 16
-12 0 -15 -8 -12 -30z"/>
<path d="M438 833 c-21 -35 -47 -69 -75 -100 -13 -13 -22 -27 -20 -31 1 -3
-15 -9 -35 -13 -33 -5 -37 -3 -43 18 -4 18 -9 22 -23 15 -16 -8 -63 -14 -124
-16 -16 -1 -28 -4 -28 -8 0 -5 4 -8 8 -8 5 0 15 -11 22 -25 11 -21 10 -28 -4
-50 l-17 -25 58 2 c42 2 57 0 56 -9 -2 -7 4 -13 12 -13 13 0 14 -4 5 -20 -7
-13 -7 -20 -1 -20 6 0 8 -14 6 -31 -5 -42 13 -78 36 -74 10 2 18 1 18 -3 -3
-20 2 -32 11 -27 6 4 7 -1 3 -11 -4 -10 -2 -15 4 -11 5 3 10 0 10 -8 0 -8 -5
-15 -10 -15 -5 0 -5 -5 1 -13 7 -8 7 -18 2 -27 -8 -13 -11 -13 -22 -1 -11 11
-11 13 1 6 10 -5 12 -4 7 4 -4 6 -12 9 -17 6 -5 -4 -9 -1 -9 5 0 7 6 10 13 7
8 -3 13 3 14 17 0 11 -1 15 -4 9 -6 -18 -20 -16 -20 2 0 8 4 12 9 9 4 -3 8 0
8 6 0 7 -7 9 -16 6 -9 -3 -12 -2 -9 4 4 6 1 9 -7 8 -7 -2 -12 3 -10 10 1 6 -2
12 -8 12 -6 0 -9 5 -8 11 2 6 -7 17 -19 25 -17 12 -23 13 -29 2 -4 -7 -4 -10
1 -6 4 4 16 3 27 -3 16 -9 17 -13 6 -27 -10 -12 -10 -14 0 -8 6 4 12 2 12 -3
0 -6 -4 -11 -8 -11 -5 0 -17 -6 -28 -14 -19 -14 -19 -14 1 -13 11 1 19 -3 17
-10 -1 -7 2 -13 8 -13 13 0 13 13 -1 27 -9 9 -7 12 10 10 12 -1 20 -6 17 -14
-3 -8 1 -10 12 -6 14 5 15 4 6 -8 -12 -14 -15 -51 -5 -45 3 2 11 -2 18 -9 10
-11 10 -15 0 -19 -7 -3 -3 -4 9 -1 19 5 21 1 19 -37 -1 -24 -5 -52 -10 -62 -6
-14 -5 -17 3 -12 7 4 12 14 12 22 0 10 9 6 26 -13 15 -15 21 -20 14 -10 -10
14 -10 17 4 17 9 0 16 -6 17 -12 0 -7 5 -3 11 10 6 12 15 22 20 22 12 0 10
-14 -4 -28 -9 -9 -9 -15 1 -24 10 -11 11 -9 5 5 -4 12 -2 17 7 15 15 -3 20 24
6 33 -5 4 -4 10 2 13 6 4 15 -3 20 -16 6 -13 10 -16 10 -8 0 8 -6 23 -14 33
-7 11 -11 26 -7 35 5 15 4 15 -11 3 -13 -10 -14 -17 -6 -27 8 -9 5 -16 -12
-24 -17 -10 -20 -9 -14 1 5 7 4 10 -3 5 -6 -4 -9 -14 -6 -24 4 -10 2 -13 -3
-7 -12 15 -33 17 -33 3 0 -20 -11 -1 -16 28 -3 19 -1 24 5 15 10 -15 20 -3 16
21 -2 11 2 15 11 11 8 -3 14 0 14 6 0 6 5 11 10 11 18 0 11 -17 -12 -27 -13
-6 -17 -12 -11 -16 6 -4 22 3 37 14 27 21 35 41 14 37 -6 -2 -13 5 -14 15 -1
12 0 13 3 2 2 -8 8 -13 13 -10 4 3 15 -6 24 -20 9 -14 12 -25 6 -25 -19 0 24
-37 50 -44 22 -5 22 -4 -4 8 l-28 13 27 21 c15 12 32 19 38 15 6 -3 7 -1 3 5
-4 6 -13 9 -22 5 -8 -3 -14 -2 -13 3 4 21 -2 26 -16 14 -8 -7 -12 -16 -9 -21
3 -5 2 -9 -3 -9 -4 0 -13 11 -20 25 -13 30 0 43 24 23 15 -11 16 -11 9 7 -12
29 -19 64 -9 45 7 -14 10 -14 23 0 23 24 22 52 -1 45 -11 -4 -19 -2 -19 5 0 6
5 8 10 5 6 -3 10 1 10 9 0 8 4 18 10 21 6 4 7 -1 3 -12 -6 -16 -5 -16 11 -4 9
8 28 16 41 17 18 2 23 -2 22 -17 -1 -21 -12 -25 -22 -9 -10 17 -35 -8 -28 -28
4 -14 3 -15 -5 -2 -8 11 -10 7 -8 -17 1 -17 7 -38 14 -45 6 -8 9 -18 5 -21 -9
-9 -23 -9 -22 1 3 19 -2 29 -16 29 -8 0 -15 -4 -15 -8 0 -11 30 -39 41 -39 5
0 12 0 17 0 10 0 10 23 -1 38 -12 15 5 16 20 1 8 -8 13 -7 18 2 5 7 4 10 -3 5
-6 -3 -13 -2 -17 4 -3 5 -1 10 4 10 6 0 11 5 11 11 0 5 -5 7 -12 3 -8 -5 -9
-2 -5 10 5 11 3 15 -4 10 -7 -4 -10 -1 -7 6 2 8 13 15 24 16 10 1 44 5 74 9
68 9 91 12 108 14 8 1 6 9 -8 23 -20 22 -21 32 -5 71 7 17 4 18 -40 11 -33 -4
-46 -3 -41 4 3 6 2 13 -4 17 -6 4 -8 10 -5 15 3 5 0 12 -6 16 -8 4 -9 3 -5 -5
5 -8 -2 -11 -24 -9 -42 3 -47 15 -10 23 27 6 30 10 26 40 -10 77 -9 77 -97 70
-62 -5 -78 -3 -75 7 10 29 16 138 8 138 -4 0 -15 -12 -24 -27z m-114 -415 c-3
-4 -9 -8 -15 -8 -5 0 -9 4 -9 8 0 5 7 9 15 9 8 0 12 -4 9 -9z m136 -18 c0 -5
-5 -10 -11 -10 -5 0 -7 5 -4 10 3 6 8 10 11 10 2 0 4 -4 4 -10z m83 -24 c3 -8
0 -17 -8 -19 -11 -5 -13 6 -6 31 2 6 9 0 14 -12z m-97 -16 c0 -12 -4 -16 -9
-11 -5 5 -6 14 -3 20 10 15 12 14 12 -9z m40 -72 c-3 -21 -16 -38 -29 -38 -7
0 -6 4 3 10 8 5 16 14 16 20 2 16 4 20 8 20 2 0 3 -6 2 -12z"/>
<path d="M500 820 c-12 -7 -10 -9 7 -7 12 0 19 5 17 9 -6 10 -6 10 -24 -2z"/>
<path d="M530 779 c0 -5 5 -7 10 -4 6 3 10 8 10 11 0 2 -4 4 -10 4 -5 0 -10
-5 -10 -11z"/>
<path d="M530 740 c0 -5 5 -10 11 -10 5 0 7 5 4 10 -3 6 -8 10 -11 10 -2 0 -4
-4 -4 -10z"/>
<path d="M574 742 c4 -3 14 -7 22 -8 9 -1 13 0 10 4 -4 3 -14 7 -22 8 -9 1
-13 0 -10 -4z"/>
<path d="M190 522 c0 -5 7 -9 15 -9 8 0 12 4 9 9 -3 4 -9 8 -15 8 -5 0 -9 -4
-9 -8z"/>
<path d="M519 433 c-13 -16 -12 -17 4 -4 16 13 21 21 13 21 -2 0 -10 -8 -17
-17z"/>
<path d="M176 431 c-4 -5 3 -7 14 -4 23 6 26 13 6 13 -8 0 -17 -4 -20 -9z"/>
<path d="M256 412 c-3 -5 1 -9 9 -9 8 0 12 4 9 9 -3 4 -7 8 -9 8 -2 0 -6 -4
-9 -8z"/>
<path d="M580 400 c-9 -6 -10 -10 -3 -10 6 0 15 5 18 10 8 12 4 12 -15 0z"/>
<path d="M490 359 c0 -5 5 -7 10 -4 6 3 10 8 10 11 0 2 -4 4 -10 4 -5 0 -10
-5 -10 -11z"/>
<path d="M126 342 c-3 -5 1 -9 9 -9 8 0 12 4 9 9 -3 4 -7 8 -9 8 -2 0 -6 -4
-9 -8z"/>
<path d="M616 338 c3 -5 10 -6 15 -3 13 9 11 12 -6 12 -8 0 -12 -4 -9 -9z"/>
<path d="M445 310 c3 -5 11 -10 16 -10 6 0 7 5 4 10 -3 6 -11 10 -16 10 -6 0
-7 -4 -4 -10z"/>
<path d="M237 299 c7 -7 15 -10 18 -7 3 3 -2 9 -12 12 -14 6 -15 5 -6 -5z"/>
<path d="M590 300 c0 -5 5 -10 11 -10 5 0 7 5 4 10 -3 6 -8 10 -11 10 -2 0 -4
-4 -4 -10z"/>
<path d="M213 286 c0 -8 5 -14 11 -13 6 1 10 -4 8 -11 -1 -8 2 -11 8 -7 8 5 6
13 -6 26 -21 23 -21 23 -21 5z"/>
<path d="M546 282 c-2 -4 4 -8 14 -8 10 0 16 4 14 8 -3 4 -9 8 -14 8 -5 0 -11
-4 -14 -8z"/>
<path d="M256 254 c-5 -14 -4 -15 9 -4 17 14 19 20 6 20 -5 0 -12 -7 -15 -16z"/>
<path d="M510 249 c0 -5 -6 -7 -12 -3 -7 4 -9 3 -5 -1 13 -15 36 -14 30 1 -6
17 -13 18 -13 3z"/>
<path d="M280 240 c0 -5 5 -10 10 -10 6 0 10 5 10 10 0 6 -4 10 -10 10 -5 0
-10 -4 -10 -10z"/>
<path d="M390 240 c0 -5 5 -10 11 -10 5 0 7 5 4 10 -3 6 -8 10 -11 10 -2 0 -4
-4 -4 -10z"/>
<path d="M339 224 c-7 -9 -6 -12 6 -10 22 3 40 23 20 23 -8 0 -20 -6 -26 -13z"/>
<path d="M250 219 c0 -5 5 -7 10 -4 6 3 10 8 10 11 0 2 -4 4 -10 4 -5 0 -10
-5 -10 -11z"/>
<path d="M275 209 c-4 -6 -5 -12 -2 -15 2 -3 7 2 10 11 7 17 1 20 -8 4z"/>
<path d="M460 180 c-9 -6 -10 -10 -3 -10 6 0 15 5 18 10 8 12 4 12 -15 0z"/>
<path d="M252 151 c7 -9 13 -18 15 -20 1 -2 1 5 0 16 0 11 -7 20 -14 20 -10 0
-10 -4 -1 -16z"/>
<path d="M310 160 c0 -6 4 -9 9 -6 5 4 12 1 14 -4 3 -6 4 -5 3 2 -3 15 -26 23
-26 8z"/>
<path d="M287 139 c7 -7 15 -10 18 -7 3 3 -2 9 -12 12 -14 6 -15 5 -6 -5z"/>
<path d="M450 146 c0 -2 7 -7 16 -10 8 -3 12 -2 9 4 -6 10 -25 14 -25 6z"/>
<path d="M336 118 c3 -4 11 -5 19 -1 21 7 19 12 -4 10 -11 0 -18 -5 -15 -9z"/>
<path d="M290 99 c0 -5 5 -7 10 -4 6 3 10 8 10 11 0 2 -4 4 -10 4 -5 0 -10 -5
-10 -11z"/>
</g>
</svg>
